<svg id="visual" viewBox="0 0 900 200" width="900" height="200" xmlns="http://www.w3.org/2000/svg" xmlns:xlink="http://www.w3.org/1999/xlink" version="1.1"><rect x="0" y="0" width="900" height="200" fill="#f87171"></rect><path d="M0 172L16.7 172.5C33.3 173 66.7 174 100 163.8C133.3 153.7 166.7 132.3 200 129.3C233.3 126.3 266.7 141.7 300 142.3C333.3 143 366.7 129 400 131.2C433.3 133.3 466.7 151.7 500 150.8C533.3 150 566.7 130 600 130.8C633.3 131.7 666.7 153.3 700 158.2C733.3 163 766.7 151 800 149.7C833.3 148.3 866.7 157.7 883.3 162.3L900 167L900 0L883.3 0C866.7 0 833.3 0 800 0C766.7 0 733.3 0 700 0C666.7 0 633.3 0 600 0C566.7 0 533.3 0 500 0C466.7 0 433.3 0 400 0C366.7 0 333.3 0 300 0C266.7 0 233.3 0 200 0C166.7 0 133.3 0 100 0C66.7 0 33.3 0 16.7 0L0 0Z" fill="#001220"></path><path d="M0 87L16.7 87.2C33.3 87.3 66.7 87.7 100 95.8C133.3 104 166.7 120 200 121.3C233.3 122.7 266.7 109.3 300 107.3C333.3 105.3 366.7 114.7 400 111.3C433.3 108 466.7 92 500 84.3C533.3 76.7 566.7 77.3 600 84.5C633.3 91.7 666.7 105.3 700 110.8C733.3 116.3 766.7 113.7 800 112.7C833.3 111.7 866.7 112.3 883.3 112.7L900 113L900 0L883.3 0C866.7 0 833.3 0 800 0C766.7 0 733.3 0 700 0C666.7 0 633.3 0 600 0C566.7 0 533.3 0 500 0C466.7 0 433.3 0 400 0C366.7 0 333.3 0 300 0C266.7 0 233.3 0 200 0C166.7 0 133.3 0 100 0C66.7 0 33.3 0 16.7 0L0 0Z" fill="#0b1a29"></path><path d="M0 83L16.7 79.8C33.3 76.7 66.7 70.3 100 68.8C133.3 67.3 166.7 70.7 200 72.7C233.3 74.7 266.7 75.3 300 71.5C333.3 67.7 366.7 59.3 400 56.2C433.3 53 466.7 55 500 59.7C533.3 64.3 566.7 71.7 600 76.8C633.3 82 666.7 85 700 85.7C733.3 86.3 766.7 84.7 800 86.8C833.3 89 866.7 95 883.3 98L900 101L900 0L883.3 0C866.7 0 833.3 0 800 0C766.7 0 733.3 0 700 0C666.7 0 633.3 0 600 0C566.7 0 533.3 0 500 0C466.7 0 433.3 0 400 0C366.7 0 333.3 0 300 0C266.7 0 233.3 0 200 0C166.7 0 133.3 0 100 0C66.7 0 33.3 0 16.7 0L0 0Z" fill="#152232"></path><path d="M0 56L16.7 54.8C33.3 53.7 66.7 51.3 100 51.2C133.3 51 166.7 53 200 53.8C233.3 54.7 266.7 54.3 300 50.8C333.3 47.3 366.7 40.7 400 39C433.3 37.3 466.7 40.7 500 38.8C533.3 37 566.7 30 600 25.8C633.3 21.7 666.7 20.3 700 23.5C733.3 26.7 766.7 34.3 800 36.2C833.3 38 866.7 34 883.3 32L900 30L900 0L883.3 0C866.7 0 833.3 0 800 0C766.7 0 733.3 0 700 0C666.7 0 633.3 0 600 0C566.7 0 533.3 0 500 0C466.7 0 433.3 0 400 0C366.7 0 333.3 0 300 0C266.7 0 233.3 0 200 0C166.7 0 133.3 0 100 0C66.7 0 33.3 0 16.7 0L0 0Z" fill="#1e293b"></path></svg>