<svg id="visual" viewBox="0 0 900 200" width="900" height="200" xmlns="http://www.w3.org/2000/svg" xmlns:xlink="http://www.w3.org/1999/xlink" version="1.1"><rect x="0" y="0" width="900" height="200" fill="#f87171"></rect><path d="M0 42L16.7 40.7C33.3 39.3 66.7 36.7 100 34.8C133.3 33 166.7 32 200 37.7C233.3 43.3 266.7 55.7 300 61.5C333.3 67.3 366.7 66.7 400 59.2C433.3 51.7 466.7 37.3 500 34.8C533.3 32.3 566.7 41.7 600 42.3C633.3 43 666.7 35 700 32.2C733.3 29.3 766.7 31.7 800 39.7C833.3 47.7 866.7 61.3 883.3 68.2L900 75L900 201L883.3 201C866.7 201 833.3 201 800 201C766.7 201 733.3 201 700 201C666.7 201 633.3 201 600 201C566.7 201 533.3 201 500 201C466.7 201 433.3 201 400 201C366.7 201 333.3 201 300 201C266.7 201 233.3 201 200 201C166.7 201 133.3 201 100 201C66.7 201 33.3 201 16.7 201L0 201Z" fill="#001220"></path><path d="M0 89L16.7 86.3C33.3 83.7 66.7 78.3 100 74.5C133.3 70.7 166.7 68.3 200 74.2C233.3 80 266.7 94 300 100.3C333.3 106.7 366.7 105.3 400 106.2C433.3 107 466.7 110 500 104.8C533.3 99.7 566.7 86.3 600 84C633.3 81.7 666.7 90.3 700 88.3C733.3 86.3 766.7 73.7 800 72.5C833.3 71.3 866.7 81.7 883.3 86.8L900 92L900 201L883.3 201C866.7 201 833.3 201 800 201C766.7 201 733.3 201 700 201C666.7 201 633.3 201 600 201C566.7 201 533.3 201 500 201C466.7 201 433.3 201 400 201C366.7 201 333.3 201 300 201C266.7 201 233.3 201 200 201C166.7 201 133.3 201 100 201C66.7 201 33.3 201 16.7 201L0 201Z" fill="#0b1a29"></path><path d="M0 141L16.7 138.5C33.3 136 66.7 131 100 130.5C133.3 130 166.7 134 200 135.5C233.3 137 266.7 136 300 134.7C333.3 133.3 366.7 131.7 400 126.7C433.3 121.7 466.7 113.3 500 114.7C533.3 116 566.7 127 600 132.7C633.3 138.3 666.7 138.7 700 140.7C733.3 142.7 766.7 146.3 800 139.8C833.3 133.3 866.7 116.7 883.3 108.3L900 100L900 201L883.3 201C866.7 201 833.3 201 800 201C766.7 201 733.3 201 700 201C666.7 201 633.3 201 600 201C566.7 201 533.3 201 500 201C466.7 201 433.3 201 400 201C366.7 201 333.3 201 300 201C266.7 201 233.3 201 200 201C166.7 201 133.3 201 100 201C66.7 201 33.3 201 16.7 201L0 201Z" fill="#152232"></path><path d="M0 159L16.7 160.8C33.3 162.7 66.7 166.3 100 163C133.3 159.7 166.7 149.3 200 147.3C233.3 145.3 266.7 151.7 300 157.3C333.3 163 366.7 168 400 168.2C433.3 168.3 466.7 163.7 500 160.3C533.3 157 566.7 155 600 157.2C633.3 159.3 666.7 165.7 700 163.3C733.3 161 766.7 150 800 151.3C833.3 152.7 866.7 166.3 883.3 173.2L900 180L900 201L883.3 201C866.7 201 833.3 201 800 201C766.7 201 733.3 201 700 201C666.7 201 633.3 201 600 201C566.7 201 533.3 201 500 201C466.7 201 433.3 201 400 201C366.7 201 333.3 201 300 201C266.7 201 233.3 201 200 201C166.7 201 133.3 201 100 201C66.7 201 33.3 201 16.7 201L0 201Z" fill="#1e293b"></path></svg>